<?xml version="1.0" encoding="utf-8"?>
<svg xmlns="http://www.w3.org/2000/svg" viewBox="0 0 32 32" width="512" height="512">
  <path d="M16 3C8.832031 3 3 8.832031 3 16C3 23.167969 8.832031 29 16 29C23.167969 29 29 23.167969 29 16C29 12.855469 27.863281 9.96875 26 7.71875L24.375 8.875C24.378906 8.882813 24.371094 8.898438 24.375 8.90625L21.75 10.65625L22.84375 12.3125L25.53125 10.53125C26.464844 12.144531 27 14.007813 27 16C27 22.066406 22.066406 27 16 27C9.933594 27 5 22.066406 5 16C5 9.933594 9.933594 5 16 5C18.113281 5 20.070313 5.617188 21.75 6.65625L23.5 5.40625C21.375 3.894531 18.800781 3 16 3 Z M 16 11C13.238281 11 11 13.238281 11 16C11 18.761719 13.238281 21 16 21C18.761719 21 21 18.761719 21 16C21 13.238281 18.761719 11 16 11 Z M 16 14C17.105469 14 18 14.894531 18 16C18 17.105469 17.105469 18 16 18C14.894531 18 14 17.105469 14 16C14 14.894531 14.894531 14 16 14Z" fill="#FFFFFF" />
</svg>